# xmcd CD database file
#
# Track frame offsets:
#	150
#	20540
#	42197
#	64925
#	87632
#	102202
#	128230
#	154535
#	177937
#	204567
#	229150
#	257360
#	275062
#	297105
#	322342
#
# Disc length: 4579 seconds
#
# Revision: 4
# Processed by: cddbd v1.5.2PL0 Copyright (c) Steve Scherf et al.
# Submitted via: CDex 1.70beta3
#
DISCID=da11e10f
DTITLE=Original Love - 2000 millennium BEST
DYEAR=2000
DGENRE=Pop
TTITLE0=月の裏で会いましょう
TTITLE1=スクランブル
TTITLE2=接吻
TTITLE3=朝日のあたる道
TTITLE4=JUMPIN' JACK JIVE
TTITLE5=ORANGE MECHANIC SUICIDE
TTITLE6=The Rover
TTITLE7=ヴィーナス
TTITLE8=スキャンダル
TTITLE9=The Best Day of My Life
TTITLE10=砂の花
TTITLE11=夜をぶっとばせ
TTITLE12=BLUE TALK
TTITLE13=BODY FRESHER
TTITLE14=DEEP FRENCH KISS
EXTD=YEAR: 2000
EXTT0=
EXTT1=
EXTT2=
EXTT3=
EXTT4=
EXTT5=
EXTT6=
EXTT7=
EXTT8=
EXTT9=
EXTT10=
EXTT11=
EXTT12=
EXTT13=
EXTT14=
PLAYORDER=
